<svg xmlns="http://www.w3.org/2000/svg" width="24" height="24" viewBox="0 0 24 24">
    <defs>
        <filter id="2xxw5x4eva">
            <feColorMatrix in="SourceGraphic" values="0 0 0 0 0.050980 0 0 0 0 0.388235 0 0 0 0 0.180392 0 0 0 1.000000 0"/>
        </filter>
    </defs>
    <g fill="none" fill-rule="evenodd">
        <g>
            <g>
                <g>
                    <g>
                        <g filter="url(#2xxw5x4eva)" transform="translate(-204 -784) translate(0 379) translate(16 204) translate(44) translate(120 120)">
                            <g>
                                <path d="M0 0H24V24H0z" transform="translate(24 81)"/>
                                <path fill="#2E3032" fill-rule="nonzero" d="M15 10c0-.55.45-1 1-1s1 .45 1 1-.45 1-1 1-1-.45-1-1zm-3-1H9c-.55 0-1-.45-1-1s.45-1 1-1h3c.55 0 1 .45 1 1s-.45 1-1 1zm4.4-7c.74-.01 1.44.49 1.57 1.21.06.31.02.61-.09.87-.14.34-.25.73-.32 1.15l2.27 2.27H21c.55 0 1 .45 1 1v5.24c0 .43-.27.81-.68.95l-2.14.72-1.25 4.16c-.26.85-1.04 1.43-1.92 1.43H14c-1.1 0-2-.9-2-2h-2l-.006.149C9.918 20.18 9.05 21 8 21H6.01c-.9 0-1.69-.6-1.93-1.46C3.37 16.98 2 11.75 2 9.5 2 6.46 4.46 4 7.5 4h5c.9-1.19 2.31-1.97 3.9-2zm-.64 2.09c-.97.25-1.76.97-2.09 1.91H7.5C5.57 6 4 7.57 4 9.5c0 1.88 1.22 6.65 2.01 9.5H8v-2h6v2h2.01l1.55-5.15 2.44-.82V9.5h-1L15.5 6c0-.65.09-1.29.26-1.91z" transform="translate(24 81)"/>
                            </g>
                        </g>
                    </g>
                </g>
            </g>
        </g>
    </g>
</svg>
