<svg xmlns="http://www.w3.org/2000/svg" width="25" height="25" viewBox="0 0 25 25">
    <defs>
        <filter id="osdfh25i7a">
            <feColorMatrix in="SourceGraphic" values="0 0 0 0 0.050980 0 0 0 0 0.388235 0 0 0 0 0.180392 0 0 0 1.000000 0"/>
        </filter>
    </defs>
    <g fill="none" fill-rule="evenodd">
        <g>
            <g>
                <g>
                    <g filter="url(#osdfh25i7a)" transform="translate(-84 -638) translate(0 379) translate(16 204) translate(44)">
                        <g>
                            <g fill="#2E3032">
                                <path d="M10.282 9.698v5.156l-2.47-3.043s-.782-.866-1.553-.315c-.761.544-.49 1.273-.357 1.518.133.246 2.24 3.988 2.24 3.988s-.553 1.932 1.083 3.466v.582s.062.757.757.757h3.23s.563.041.563-.562v-.675l1.145-5.808s.297-1.329-.593-2.198c-.89-.869-4.045-2.866-4.045-2.866" transform="translate(24 55) translate(4 1)"/>
                                <path d="M10.191.501H3.064C1.916.501.981 1.436.981 2.584V15.23c0 1.148.935 2.083 2.083 2.083h2.952c-.002-.084-.006-.168-.006-.256l-.974-1.745H3.064c-.045 0-.082-.037-.082-.082V2.584c0-.045.037-.081.082-.081h7.127c.045 0 .082.036.082.081v4.584l2.001 1.402V2.584c0-1.148-.934-2.083-2.083-2.083" transform="translate(24 55) translate(4 1)"/>
                                <path d="M7.182 8.459V7.44c.283.159.358.346.358.542 0 .152-.078.364-.358.476zm-.895-2.024c-.26-.13-.358-.278-.358-.47 0-.22.13-.393.358-.49v.96zm.895.3V5.491c.138.074.223.189.266.335.036.123.135.215.26.215h.089c.197 0 .337-.2.268-.39-.124-.364-.417-.666-.883-.782v-.213c0-.256-.2-.462-.447-.462-.248 0-.448.206-.448.462v.203c-.578.13-1.044.517-1.044 1.111 0 .603.412.948 1.044 1.165v1.331c-.209-.075-.334-.208-.397-.372-.045-.12-.146-.206-.268-.206h-.084c-.2 0-.34.209-.266.4.17.428.568.68 1.015.779v.206c0 .256.2.462.448.462s.447-.206.447-.462v-.2c.582-.114 1.044-.462 1.044-1.093 0-.72-.492-1.049-1.044-1.245z" transform="translate(24 55) translate(4 1)"/>
                            </g>
                        </g>
                    </g>
                </g>
            </g>
        </g>
    </g>
</svg>
